<svg xmlns="http://www.w3.org/2000/svg" viewBox="0 0 1024 1024">
<path fill="currentColor" d="M783.09888 211.24096c0-17.83296-15.1296-32.42496-32.96256-32.42496h-82.67776v32.42496c0 17.83296-15.1296 32.42496-32.96256 32.42496H354.56512c-17.83296 0-32.96256-14.04928-32.96256-32.42496v-32.42496H222.70976c-17.83296 0-32.96256 14.04928-32.96256 32.42496v614.4256c0 17.83296 15.1296 32.42496 32.96256 32.42496h263.71072l65.93024 64.8448H189.7472c-36.20864 0.54272-65.38752-28.64128-65.93024-64.8448V178.82112c0.54272-36.20864 29.7216-64.8448 65.93024-64.8448h131.85536c0-17.83296 15.1296-32.42496 32.96256-32.42496h280.46336c17.83296 0 32.96256 14.04928 32.96256 32.42496h115.64544c36.20864-0.54272 65.38752 28.64128 65.93024 64.8448v297.216l-65.93024 67.01056V211.24096h-0.5376z m-148.0704 226.42688H338.3552c-9.18528 0-16.20992-7.02464-16.20992-16.20992V405.248c0-9.18528 7.56736-16.20992 16.20992-16.20992h296.67328c9.18528 0 16.20992 7.02464 16.20992 16.20992v16.20992a16.20992 16.20992 0 0 1-16.20992 16.20992z m16.20992 162.11968a16.20992 16.20992 0 0 1-16.20992 16.20992H338.3552c-9.18528 0-16.20992-7.02464-16.20992-16.20992v-16.20992c0-9.18528 7.56736-16.20992 16.20992-16.20992h296.67328c9.18528 0 16.20992 7.02464 16.20992 16.20992v16.20992zM507.4944 699.76064l122.12736 104.2944 335.04256-333.96224-330.72128 452.84864-170.22464-179.95264 43.776-43.22816z"  /></svg>