<svg xmlns="http://www.w3.org/2000/svg" viewBox="0 0 1024 1024">
<path fill="currentColor" d="M837.46816 226.05824h-198.76864V142.13632a30.72 30.72 0 0 0-30.72-30.72H419.65568a30.72 30.72 0 0 0-30.72 30.72v83.92192H190.16704c-56.10496 0-101.74976 45.6448-101.74976 101.74976v477.68576c0 56.10496 45.6448 101.74976 101.74976 101.74976h647.30624c56.11008 0 101.75488-45.6448 101.75488-101.74976V327.808c-0.00512-56.10496-45.64992-101.74976-101.76-101.74976zM450.37568 172.85632h126.88384v53.20192H450.37568V172.85632zM190.16704 287.49824h647.30624c22.23104 0 40.31488 18.08384 40.31488 40.30976v213.89824h-206.02368v-42.75712a30.72 30.72 0 0 0-30.72-30.72H386.59584a30.72 30.72 0 0 0-30.72 30.72v37.63712H149.85728V327.808c0-22.22592 18.08384-40.30976 40.30976-40.30976z m420.15232 242.176v75.264H417.31584v-75.264h193.00352z m227.1488 316.12928H190.16704c-22.22592 0-40.30976-18.08384-40.30976-40.30976v-207.46752h206.01856v37.632a30.72 30.72 0 0 0 30.72 30.72h254.44352a30.72 30.72 0 0 0 30.72-30.72v-32.512h206.02368v202.34752c0 22.22592-18.08384 40.30976-40.31488 40.30976z"  /></svg>