<svg xmlns="http://www.w3.org/2000/svg" viewBox="0 0 1024 1024">
<path fill="currentColor" d="M476.99968 115.31776H249.37472c-57.53344 0-104.3456 46.81216-104.3456 104.3456V812.3904c0 57.53344 46.81216 104.3456 104.3456 104.3456h227.62496c57.53344 0 104.3456-46.81216 104.3456-104.3456V219.66336c0-57.53344-46.81216-104.3456-104.3456-104.3456z m42.9056 697.07264c0 23.65952-19.24608 42.9056-42.9056 42.9056H249.37472c-23.65952 0-42.9056-19.24608-42.9056-42.9056V219.66336c0-23.65952 19.24608-42.9056 42.9056-42.9056h227.62496c23.65952 0 42.9056 19.24608 42.9056 42.9056V812.3904zM798.55616 465.05984H704.0512c-57.53344 0-104.34048 46.81216-104.34048 104.3456v227.62496c0 57.53344 46.80704 104.3456 104.34048 104.3456h94.50496c57.53344 0 104.3456-46.81216 104.3456-104.3456v-227.62496c0-57.53344-46.81216-104.3456-104.3456-104.3456z m42.9056 331.97056c0 23.65952-19.24608 42.9056-42.9056 42.9056H704.0512c-23.6544 0-42.90048-19.24608-42.90048-42.9056v-227.62496c0-23.65952 19.24608-42.9056 42.90048-42.9056h94.50496c23.65952 0 42.9056 19.24608 42.9056 42.9056v227.62496z"  /><path fill="currentColor" d="M450.00704 321.11104H276.37248a30.72 30.72 0 0 0 0 61.44h173.63456a30.72 30.72 0 0 0 0-61.44zM450.00704 459.67872H276.37248a30.72 30.72 0 0 0 0 61.44h173.63456a30.72 30.72 0 0 0 0-61.44zM450.00704 598.24128H276.37248a30.72 30.72 0 0 0 0 61.44h173.63456a30.72 30.72 0 0 0 0-61.44zM779.35616 630.98368h-56.09984a30.72 30.72 0 0 0 0 61.44h56.09984a30.72 30.72 0 0 0 0-61.44z"  /></svg>