<svg xmlns="http://www.w3.org/2000/svg" viewBox="0 0 1024 1024">
<path fill="currentColor" d="M572.33 68.288l145.046 145.024 157.29 0.021A85.333 85.333 0 0 1 960 298.667v576A85.333 85.333 0 0 1 874.667 960H149.333A85.333 85.333 0 0 1 64 874.667v-576a85.333 85.333 0 0 1 85.333-85.334h157.291L451.669 68.267a85.333 85.333 0 0 1 120.662 0z m302.337 209.045H149.333a21.333 21.333 0 0 0-21.184 18.838l-0.149 2.496v576a21.333 21.333 0 0 0 18.837 21.184l2.496 0.149h725.334a21.333 21.333 0 0 0 21.184-18.837l0.149-2.496v-576a21.333 21.333 0 0 0-18.837-21.184l-2.496-0.15zM460.8 682.667c4.693 0 8.533 3.84 8.533 8.533v46.933a8.533 8.533 0 0 1-8.533 8.534H264.533a8.533 8.533 0 0 1-8.533-8.534V691.2c0-4.693 3.84-8.533 8.533-8.533H460.8z m298.667-128c4.693 0 8.533 3.84 8.533 8.533v46.933a8.533 8.533 0 0 1-8.533 8.534H264.533a8.533 8.533 0 0 1-8.533-8.534V563.2c0-4.693 3.84-8.533 8.533-8.533h494.934z m0-128c4.693 0 8.533 3.84 8.533 8.533v46.933a8.533 8.533 0 0 1-8.533 8.534H264.533a8.533 8.533 0 0 1-8.533-8.534V435.2c0-4.693 3.84-8.533 8.533-8.533h494.934zM498.773 111.893l-1.856 1.643-99.797 99.797h229.76l-99.797-99.776a21.333 21.333 0 0 0-28.31-1.642z"  /></svg>