<svg xmlns="http://www.w3.org/2000/svg" viewBox="0 0 1024 1024">
<path fill="currentColor" d="M832 64a128 128 0 0 1 128 128v640a128 128 0 0 1-128 128H192A128 128 0 0 1 64 832V192A128 128 0 0 1 192 64h640zM501.333 704a160.064 160.064 0 0 1-150.89-106.667H128V832a64 64 0 0 0 60.245 63.893L192 896h640a64 64 0 0 0 63.893-60.245L896 832V597.333H652.224A160.064 160.064 0 0 1 501.334 704zM405.91 533.333a96 96 0 1 0 190.827 0H896V362.667H128v170.666h277.91zM832 128H192a64 64 0 0 0-63.893 60.245L128 192v106.667h768V192a64 64 0 0 0-60.245-63.893L832 128z"  /></svg>