<svg xmlns="http://www.w3.org/2000/svg" viewBox="0 0 1024 1024">
<path fill="currentColor" d="M782.73024 810.73152a29.6192 29.6192 0 0 0-29.6192 29.6192c0 20.78208-16.90624 37.68832-37.69344 37.68832H190.65344c-20.78208 0-37.69344-16.90624-37.69344-37.68832V175.81568c0-20.78208 16.90624-37.68832 37.69344-37.68832H715.4176c20.78208 0 37.69344 16.90624 37.69344 37.68832v143.39072a29.6192 29.6192 0 1 0 59.2384 0V175.81568c0-53.44768-43.48416-96.93184-96.93184-96.93184H190.65344c-53.44768 0-96.93184 43.48416-96.93184 96.93184v664.54016c0 53.44768 43.48416 96.93184 96.93184 96.93184H715.4176c53.44768 0 96.93184-43.48416 96.93184-96.93184a29.62432 29.62432 0 0 0-29.6192-29.62432z"  /><path fill="currentColor" d="M614.44608 319.2064a29.6192 29.6192 0 0 0-29.6192-29.6192H252.12416a29.6192 29.6192 0 1 0 0 59.2384h332.70272a29.61408 29.61408 0 0 0 29.6192-29.6192zM565.07904 457.07776a29.6192 29.6192 0 0 0-29.6192-29.6192H252.12416a29.6192 29.6192 0 1 0 0 59.2384h283.33056a29.6192 29.6192 0 0 0 29.62432-29.6192zM495.53408 594.95424a29.6192 29.6192 0 0 0-29.6192-29.6192H252.12416a29.6192 29.6192 0 1 0 0 59.2384h213.7856a29.6192 29.6192 0 0 0 29.62432-29.6192zM252.12416 703.20128a29.6192 29.6192 0 1 0 0 59.2384h115.05152a29.6192 29.6192 0 1 0 0-59.2384H252.12416z"  /><path fill="currentColor" d="M734.653007 464.152962a52.58752 52.58752 0 1 0 103.818278-16.839066 52.58752 52.58752 0 1 0-103.818278 16.839066Z"  /><path fill="currentColor" d="M931.26144 611.63008h-37.43744l-52.38784-49.18272-54.89664-51.5328-54.89152 51.53792-52.38784 49.18272h-43.22304a16.15872 16.15872 0 0 0-16.15872 16.15872v90.28096a16.15872 16.15872 0 0 0 16.15872 16.15872h295.22944a16.15872 16.15872 0 0 0 16.15872-16.15872v-90.28096a16.16896 16.16896 0 0 0-16.16384-16.16384z"  /></svg>