<svg xmlns="http://www.w3.org/2000/svg" viewBox="0 0 1024 1024">
<path fill="currentColor" d="M311.467 64c4.693 0 8.533 3.84 8.533 8.533v46.934a8.533 8.533 0 0 1-8.533 8.533h-76.8a106.667 106.667 0 0 0-106.56 102.037l-0.107 4.63v554.666a106.667 106.667 0 0 0 102.037 106.56l4.63 0.107h554.666a106.667 106.667 0 0 0 106.56-102.037l0.107-4.63V234.667a106.667 106.667 0 0 0-102.037-106.56l-4.63-0.107h-55.466a8.533 8.533 0 0 1-8.534-8.533V72.533c0-4.693 3.84-8.533 8.534-8.533h55.466A170.667 170.667 0 0 1 960 234.667v554.666A170.667 170.667 0 0 1 789.333 960H234.667A170.667 170.667 0 0 1 64 789.333V234.667A170.667 170.667 0 0 1 234.667 64h76.8z m234.666 0c4.694 0 8.534 3.84 8.534 8.533V527.51l156.096-156.096a8.533 8.533 0 0 1 14.57 6.038v66.389a8.533 8.533 0 0 1-2.496 6.016L537.451 635.264a21.227 21.227 0 0 1-11.328 5.91l-2.518 0.298h-2.517a21.248 21.248 0 0 1-13.824-6.187l-184.747-184.81a8.533 8.533 0 0 1-2.517-6.016V378.09a8.533 8.533 0 0 1 14.57-6.038L490.668 528.15V72.533c0-4.693 3.84-8.533 8.533-8.533h46.933z"  /></svg>