<svg xmlns="http://www.w3.org/2000/svg" viewBox="0 0 1024 1024">
<path fill="currentColor" d="M887.49568 286.1056a30.26432 30.26432 0 0 0-1.14176-5.0688l-0.07168-0.19456a31.03744 31.03744 0 0 0-1.62816-3.94752c-0.08704-0.17408-0.16384-0.35328-0.25088-0.52224a30.60224 30.60224 0 0 0-2.24768-3.68128c-0.05632-0.08192-0.09728-0.17408-0.1536-0.256l-151.46496-209.17248c-0.12288-0.17408-0.27136-0.32256-0.39936-0.49152a31.0272 31.0272 0 0 0-1.51552-1.85344c-0.25088-0.2816-0.49664-0.5632-0.75776-0.83456a32.14336 32.14336 0 0 0-1.75616-1.6896c-0.2304-0.2048-0.44544-0.41984-0.68096-0.61952a30.37184 30.37184 0 0 0-2.67776-2.02752l-0.16896-0.1024a30.93504 30.93504 0 0 0-2.72896-1.60256c-0.25088-0.13312-0.50688-0.24576-0.76288-0.36864-0.76288-0.37376-1.536-0.7168-2.33472-1.024-0.30208-0.11776-0.60928-0.22528-0.91648-0.3328a31.09376 31.09376 0 0 0-2.35008-0.7168c-0.32256-0.08704-0.64512-0.17408-0.96768-0.25088a28.74368 28.74368 0 0 0-2.50368-0.45056c-0.30208-0.04096-0.59904-0.1024-0.90112-0.13824a30.76096 30.76096 0 0 0-3.45088-0.2048H252.88704c-63.93856 0-115.95776 52.0192-115.95776 115.95776v690.31424c0 63.93856 52.0192 115.95776 115.95776 115.95776h518.99392c63.93856 0 115.95264-52.0192 115.95264-115.95776V290.44736a29.62432 29.62432 0 0 0-0.33792-4.34176z m-151.12192-110.0288l60.5696 83.65056h-60.5696V176.0768z m90.02496 680.75008c0 30.05952-24.45312 54.51776-54.51264 54.51776H252.88704c-30.05952 0-54.51776-24.45824-54.51776-54.51776V166.51264c0-30.05952 24.45824-54.51776 54.51776-54.51776h422.04672v178.45248a30.72 30.72 0 0 0 30.72 30.72h120.74496v535.65952z"  /><path fill="currentColor" d="M334.80704 570.1888h89.43104v-26.49088H334.80704v-34.53952h90.69568v-26.69568H285.21984v145.57696h137.52832l8.05376-26.7008H334.80704zM585.07264 578.66752a4555.27936 4555.27936 0 0 1-23.73632-27.76064c6.35904-7.6288 12.7488-15.15008 19.17952-22.56896a2854.91712 2854.91712 0 0 1 19.38944-22.144h13.77792V483.9424h-51.28192l-29.24544 33.90464-28.60544-33.90464H453.4784v22.25152h13.77792a2746.624 2746.624 0 0 1 19.2768 22.0416 1587.36384 1587.36384 0 0 1 19.07712 22.45632 14244.97664 14244.97664 0 0 1-23.6288 27.76576 2787.54816 2787.54816 0 0 1-23.84384 27.5456h-14.62272l11.44832 22.25152h40.68864l37.92896-44.49792a3622.912 3622.912 0 0 0 18.86208 22.46144 2670.0544 2670.0544 0 0 0 18.85696 22.0416h40.89856l11.44832-22.25152h-14.62272a2208.59392 2208.59392 0 0 1-23.95136-27.3408zM684.2368 482.24768h-47.88736v145.58208h88.58112l11.4432-26.7008H684.2368z"  /></svg>