<svg xmlns="http://www.w3.org/2000/svg" viewBox="0 0 1024 1024">
<path fill="currentColor" d="M533.333 128a85.333 85.333 0 0 1 85.334 85.333v21.312l220.65 0.022a85.333 85.333 0 0 1 56.832 21.674l3.52 3.328 77.995 77.995a85.333 85.333 0 0 1 24.875 55.51l0.128 4.842v327.317A85.333 85.333 0 0 1 921.6 810.56l-4.267 0.107h-25.749a117.376 117.376 0 0 1-225.835 0h-47.082l-196.416 0.021a117.376 117.376 0 0 1-225.835 0l-89.75-0.021a85.333 85.333 0 0 1-85.333-85.334v-512A85.333 85.333 0 0 1 106.667 128h426.666z m-224 597.333a53.333 53.333 0 1 0 0 106.667 53.333 53.333 0 0 0 0-106.667z m469.334 0a53.333 53.333 0 1 0 0 106.667 53.333 53.333 0 0 0 0-106.667zM533.333 192H106.667a21.333 21.333 0 0 0-21.184 18.837l-0.15 2.496v512a21.333 21.333 0 0 0 18.838 21.184l2.496 0.15h89.749a117.376 117.376 0 0 1 225.835 0h132.416V213.333a21.333 21.333 0 0 0-16.427-20.778l-2.41-0.427-2.497-0.128z m305.984 106.667h-220.65v448h47.082a117.376 117.376 0 0 1 225.835 0h25.75l2.495-0.15a21.333 21.333 0 0 0 18.688-18.688l0.15-2.496V398.016l-0.192-2.816a21.333 21.333 0 0 0-4.203-10.155l-1.856-2.133-78.016-77.995-2.112-1.856a21.333 21.333 0 0 0-10.155-4.202l-2.816-0.192z"  /></svg>