<svg xmlns="http://www.w3.org/2000/svg" viewBox="0 0 1024 1024">
<path fill="currentColor" d="M72.533 490.667h878.934q8.533 0 8.533 8.533v46.933q0 8.534-8.533 8.534H72.533q-8.533 0-8.533-8.534V499.2q0-8.533 8.533-8.533z"  /><path fill="currentColor" d="M128 669.867V824a72 72 0 0 0 67.776 71.893L200 896h154.133c4.694 0 8.534 3.84 8.534 8.533v46.934a8.533 8.533 0 0 1-8.534 8.533h-148.65A141.483 141.483 0 0 1 64 818.517v-148.65c0-4.694 3.84-8.534 8.533-8.534h46.934c4.693 0 8.533 3.84 8.533 8.534z m832 0v148.65A141.483 141.483 0 0 1 818.517 960h-148.65a8.533 8.533 0 0 1-8.534-8.533v-46.934c0-4.693 3.84-8.533 8.534-8.533H824a72 72 0 0 0 71.893-67.776L896 824V669.867c0-4.694 3.84-8.534 8.533-8.534h46.934c4.693 0 8.533 3.84 8.533 8.534zM362.667 72.533v46.934a8.533 8.533 0 0 1-8.534 8.533H200a72 72 0 0 0-71.893 67.776L128 200v154.133a8.533 8.533 0 0 1-8.533 8.534H72.533A8.533 8.533 0 0 1 64 354.133v-148.65A141.483 141.483 0 0 1 205.483 64h148.65c4.694 0 8.534 3.84 8.534 8.533zM818.517 64A141.483 141.483 0 0 1 960 205.483v148.65a8.533 8.533 0 0 1-8.533 8.534h-46.934a8.533 8.533 0 0 1-8.533-8.534V200a72 72 0 0 0-67.776-71.893L824 128H669.867a8.533 8.533 0 0 1-8.534-8.533V72.533c0-4.693 3.84-8.533 8.534-8.533h148.65zM694.06 618.688l54.016-0.021a4.97 4.97 0 0 1 4.906 5.781 243.67 243.67 0 0 1-234.666 207.467L512 832a243.67 243.67 0 0 1-240.619-205.227 7.083 7.083 0 0 1 7.04-8.106h1.152a543233.92 543233.92 0 0 0 48.299 0 8.533 8.533 0 0 1 8.341 6.826l0.363 1.707c17.621 79.765 87.317 138.176 169.045 140.715l5.547 0.085 5.504-0.064a179.67 179.67 0 0 0 171.52-144.405 5.973 5.973 0 0 1 5.867-4.843zM512 192c144.427 0 261.483 117.077 261.483 261.483 0 11.562-0.768 23.104-2.283 34.56l-8.896 66.624h-64.576l10.027-75.094a197.483 197.483 0 1 0-392.192-5.674l0.682 5.696 9.984 75.072h-64.554l-8.875-66.624c-19.072-143.147 81.493-274.667 224.64-293.76A261.483 261.483 0 0 1 512 192z"  /></svg>