<svg xmlns="http://www.w3.org/2000/svg" viewBox="0 0 1024 1024">
<path fill="currentColor" d="M529.387 85.333a203.05 203.05 0 0 1 202.986 197.27l0.064 5.781v96.47a209.745 209.745 0 0 1-57.877 144.682l-4.907 4.992-42.816 42.027a3.563 3.563 0 0 0-0.938 1.6l-0.128 0.938v6.016c0 0.278 0.106 0.512 0.277 0.704l0.32 0.214 51.413 24.234a8.533 8.533 0 0 1 4.886 7.723v51.883a8.533 8.533 0 0 1-12.16 7.722l-71.424-33.642a65.024 65.024 0 0 1-37.163-54.656l-0.15-4.182v-6.016a67.592 67.592 0 0 1 17.11-44.949l3.115-3.264 42.794-42.027a145.77 145.77 0 0 0 43.52-97.493l0.128-6.507v-96.469A139.05 139.05 0 0 0 534.38 149.419l-4.992-0.086h-12.95l-4.842 0.064A139.05 139.05 0 0 0 376.98 283.392l-0.085 4.992v95.872l0.085 5.91a145.77 145.77 0 0 0 38.976 93.994l4.587 4.693 43.904 43.179 3.456 3.84a67.4 67.4 0 0 1 15.488 38.485l0.17 4.736-0.042 7.552-0.256 4.694a65.024 65.024 0 0 1-33.195 50.645l-3.818 1.963-294.934 138.965-2.986 1.515a39.104 39.104 0 0 0-20.203 31.018l-0.128 3.286v9.749l0.043 2.539c0.725 11.648 9.856 20.992 21.333 22.186l2.475 0.128h522.282c4.694 0 8.534 3.84 8.534 8.534V908.8a8.533 8.533 0 0 1-8.534 8.533H151.851c-45.014 0-82.39-33.92-87.339-78.933l-0.384-4.395-0.128-4.522V818.73c0-36.075 18.837-69.334 50.09-88.384l4.331-2.496 4.736-2.39L419.35 585.9l0.086 0.106v0.64l0.128-1.536v-6.016l-0.086-1.066c0-0.107 0-0.192 0.064-0.214l0.256 0.214-1.301-1.494-42.795-42.005a209.984 209.984 0 0 1-62.314-135.552l-0.384-7.04-0.107-7.083v-96.469c0-107.861 84.224-196.437 191.467-202.71l5.76-0.255 5.824-0.086h13.44zM797.867 682.667H844.8c4.693 0 8.533 3.84 8.533 8.533v217.6a8.533 8.533 0 0 1-8.533 8.533h-46.933a8.533 8.533 0 0 1-8.534-8.533V691.2c0-4.693 3.84-8.533 8.534-8.533z"  /><path fill="currentColor" d="M712.533 768h217.6c4.694 0 8.534 3.84 8.534 8.533v46.934a8.533 8.533 0 0 1-8.534 8.533h-217.6a8.533 8.533 0 0 1-8.533-8.533v-46.934c0-4.693 3.84-8.533 8.533-8.533z"  /></svg>