<svg xmlns="http://www.w3.org/2000/svg" viewBox="0 0 1024 1024">
<path fill="currentColor" d="M540.053 96A203.05 203.05 0 0 1 743.04 293.27l0.064 5.78v96.47a209.745 209.745 0 0 1-57.877 144.683l-4.907 4.992-42.816 42.026a3.563 3.563 0 0 0-0.939 1.6l-0.128 0.939v6.016c0 0.277 0.107 0.512 0.278 0.704l0.32 0.213 35.413 16.704a8.533 8.533 0 0 1 3.627 12.16l-24.619 40.278a8.533 8.533 0 0 1-10.923 3.264l-30.784-14.507a65.024 65.024 0 0 1-37.162-54.635l-0.15-4.181v-6.016a67.592 67.592 0 0 1 17.11-44.95l3.114-3.263 42.795-42.027a145.77 145.77 0 0 0 43.52-97.493l0.128-6.507v-96.47a139.05 139.05 0 0 0-134.059-138.965l-4.992-0.085h-12.949l-4.843 0.064a139.05 139.05 0 0 0-134.613 133.995l-0.085 4.992v95.872l0.085 5.909a145.77 145.77 0 0 0 38.976 93.995l4.587 4.693 43.904 43.179 3.456 3.84a67.4 67.4 0 0 1 15.488 38.485l0.17 4.736-0.042 7.552-0.256 4.693a65.024 65.024 0 0 1-33.195 50.646l-3.819 1.962L161.984 793.58l-2.987 1.514a39.104 39.104 0 0 0-20.202 31.019l-0.128 3.285v4.331l0.042 2.39a18.517 18.517 0 0 0 16.086 17.066l2.389 0.15h448.96a8.533 8.533 0 0 1 7.488 4.415l25.813 46.934a8.533 8.533 0 0 1-7.466 12.65H157.163c-42.07 0-77.078-31.573-81.984-73.728l-0.406-4.266-0.128-4.523v-5.419c0-36.074 18.838-69.333 50.091-88.384l4.33-2.496 4.737-2.389 296.192-139.563 0.085 0.107v0.64l0.128-1.536v-6.016l-0.085-1.067c0-0.106 0-0.192 0.064-0.213l0.256 0.213-1.302-1.493-42.794-42.005a209.984 209.984 0 0 1-62.315-135.552l-0.384-7.04-0.107-7.083v-96.47c0-107.86 84.224-196.437 191.467-202.709l5.76-0.256 5.824-0.085h13.44z m330.582 565.312a8.533 8.533 0 0 1 7.402 4.267l67.712 117.653a8.533 8.533 0 0 1 0.064 8.384l-67.072 121.301a8.533 8.533 0 0 1-7.466 4.395H731.2a8.533 8.533 0 0 1-7.403-4.267l-70.272-121.301a8.533 8.533 0 0 1 0.064-8.683l70.934-117.632a8.533 8.533 0 0 1 7.317-4.117z m-36.992 64h-65.664a8.533 8.533 0 0 0-7.318 4.117l-32.725 54.272a8.533 8.533 0 0 0-0.064 8.683l32.81 56.683a8.533 8.533 0 0 0 7.403 4.245h65.451a8.533 8.533 0 0 0 7.467-4.395l31.338-56.682a8.533 8.533 0 0 0-0.085-8.384L841.024 729.6a8.533 8.533 0 0 0-7.381-4.267z"  /></svg>