<svg xmlns="http://www.w3.org/2000/svg" viewBox="0 0 1024 1024">
<path fill="currentColor" d="M856.84224 193.4336H168.23808c-63.93856 0-115.95776 52.0192-115.95776 115.95776v441.61536c0 63.93856 52.0192 115.95776 115.95776 115.95776h688.60416c63.93856 0 115.95264-52.0192 115.95264-115.95776V309.39648C972.8 245.4528 920.7808 193.4336 856.84224 193.4336zM911.36 751.01184c0 30.06464-24.45312 54.51776-54.51264 54.51776H168.23808c-30.06464 0-54.51776-24.45312-54.51776-54.51776V309.39648c0-30.05952 24.45312-54.51776 54.51776-54.51776h688.60416c30.05952 0 54.51264 24.45824 54.51264 54.51776v441.61536z"  /><path fill="currentColor" d="M325.2224 307.30752c-87.39328 0-158.49984 71.10656-158.49984 158.50496 0 65.86368 40.38656 122.45504 97.6896 146.3552l-40.51968 77.34784a30.72 30.72 0 1 0 54.41536 28.51328l46.97088-89.66144c0.33792-0.65024 0.61952-1.31072 0.91136-1.9712 0.29184 0.66048 0.56832 1.32608 0.91136 1.9712l46.97088 89.66144a30.70976 30.70976 0 0 0 41.46176 12.9536 30.70976 30.70976 0 0 0 12.9536-41.46688l-40.87296-78.01856c56.46336-24.27392 96.10752-80.43008 96.10752-145.68448 0.00512-87.3984-71.10144-158.50496-158.49984-158.50496z m0 255.57504c-53.51936 0-97.05984-43.5456-97.05984-97.06496s43.54048-97.06496 97.05984-97.06496 97.06496 43.5456 97.06496 97.06496-43.5456 97.06496-97.06496 97.06496zM559.86176 388.34176h250.43456a30.72 30.72 0 0 0 0-61.44h-250.43456a30.72 30.72 0 0 0 0 61.44zM818.30912 499.97824h-180.31104a30.72 30.72 0 0 0 0 61.44h180.31104a30.72 30.72 0 0 0 0-61.44zM818.30912 673.05472H525.1072a30.72 30.72 0 0 0 0 61.44h293.20192a30.72 30.72 0 0 0 0-61.44z"  /></svg>