<svg xmlns="http://www.w3.org/2000/svg" viewBox="0 0 1024 1024">
<path fill="currentColor" d="M447.25644 461.678684a70.62016 70.62016 0 1 0 139.418315-22.613304 70.62016 70.62016 0 1 0-139.418315 22.613304Z"  /><path fill="currentColor" d="M797.60896 906.33728h-249.9328v-53.77536c208.16384-15.76448 372.75648-190.05952 372.75648-402.19136 0-222.47936-181.00224-403.47648-403.47648-403.47648-222.47936 0-403.4816 181.00224-403.4816 403.47648 0 212.13184 164.59264 386.42688 372.7616 402.19136v53.77536H258.00192a30.72 30.72 0 0 0 0 61.44h539.60704a30.72 30.72 0 0 0 0-61.44zM174.91456 450.37056c0-188.60032 153.44128-342.03648 342.0416-342.03648s342.03648 153.43616 342.03648 342.03648-153.43616 342.03648-342.03648 342.03648S174.91456 638.976 174.91456 450.37056z"  /></svg>