<svg xmlns="http://www.w3.org/2000/svg" viewBox="0 0 1024 1024">
    <path fill="currentColor"
        d="M915.36896 655.46752h-42.38848a30.80192 30.80192 0 0 0-2.92864-8.84224c-51.03104-100.08064-191.70816-180.08064-330.67008-191.75936V370.42176h69.57056a30.72 30.72 0 0 0 30.72-30.72V139.13088a30.72 30.72 0 0 0-30.72-30.72H408.37632a30.72 30.72 0 0 0-30.72 30.72v200.57088a30.72 30.72 0 0 0 30.72 30.72h69.56544V454.1952c-134.04672 8.51456-252.87168 80.13312-307.52256 187.31008a30.56128 30.56128 0 0 0-3.328 13.96224H103.73632a30.72 30.72 0 0 0-30.72 30.72v200.576a30.72 30.72 0 0 0 30.72 30.72h200.576a30.72 30.72 0 0 0 30.72-30.72v-200.576a30.72 30.72 0 0 0-30.72-30.72H232.92416c47.2832-79.22176 140.03712-131.90144 245.0176-139.65312v138.35776c0 0.4352 0.04608 0.86016 0.06656 1.29536H409.2672a30.72 30.72 0 0 0-30.72 30.72v200.576a30.72 30.72 0 0 0 30.72 30.72h200.576a30.72 30.72 0 0 0 30.72-30.72v-200.576a30.72 30.72 0 0 0-30.72-30.72h-70.52288c0.02048-0.4352 0.06656-0.86016 0.06656-1.29536v-137.71264c116.1472 10.86464 219.61728 74.47552 264.38656 139.008h-88.97536a30.72 30.72 0 0 0-30.72 30.72v200.576a30.72 30.72 0 0 0 30.72 30.72h200.576a30.72 30.72 0 0 0 30.72-30.72v-200.576a30.73024 30.73024 0 0 0-30.72512-30.72zM439.09632 169.85088h139.136v139.13088H439.09632V169.85088zM273.59232 856.04352H134.45632v-139.136h139.136v139.136z m305.52576 0H439.9872v-139.136h139.136v139.136z m305.53088 0h-139.136v-139.136h139.136v139.136z" />
</svg>