<svg xmlns="http://www.w3.org/2000/svg" viewBox="0 0 1024 1024">
<path fill="currentColor" d="M909.7728 290.69824a30.26432 30.26432 0 0 0-1.14176-5.0688l-0.07168-0.19456a31.03744 31.03744 0 0 0-1.62816-3.94752c-0.08704-0.17408-0.16384-0.35328-0.25088-0.52224a30.60224 30.60224 0 0 0-2.24768-3.68128c-0.05632-0.08192-0.09728-0.17408-0.1536-0.256l-151.46496-209.17248c-0.12288-0.17408-0.27136-0.32256-0.39936-0.49152a31.0272 31.0272 0 0 0-1.51552-1.85344c-0.25088-0.2816-0.49664-0.5632-0.75776-0.83456a32.14336 32.14336 0 0 0-1.75616-1.6896c-0.2304-0.2048-0.44544-0.41984-0.68096-0.61952a30.37184 30.37184 0 0 0-2.67776-2.02752l-0.16896-0.1024a30.93504 30.93504 0 0 0-2.72896-1.60256c-0.25088-0.13312-0.50688-0.24576-0.76288-0.36864-0.76288-0.37376-1.536-0.7168-2.33472-1.024-0.30208-0.11776-0.60928-0.22528-0.91648-0.3328a31.09376 31.09376 0 0 0-2.35008-0.7168c-0.32256-0.08704-0.64512-0.17408-0.96768-0.25088a28.74368 28.74368 0 0 0-2.50368-0.45056c-0.30208-0.04096-0.59904-0.1024-0.90112-0.13824a30.76096 30.76096 0 0 0-3.45088-0.2048H275.16416c-63.93856 0-115.95776 52.0192-115.95776 115.95776v690.31424c0 63.93856 52.0192 115.95776 115.95776 115.95776h518.99392c63.93856 0 115.95264-52.0192 115.95264-115.95776V295.04c0-1.47968-0.13824-2.9184-0.33792-4.34176z m-151.12704-110.0288l60.5696 83.65056h-60.5696V180.66944z m90.02496 680.75008c0 30.05952-24.45312 54.51776-54.51264 54.51776H275.16416c-30.05952 0-54.51776-24.45824-54.51776-54.51776V171.10528c0-30.05952 24.45824-54.51776 54.51776-54.51776h422.04672v178.45248a30.72 30.72 0 0 0 30.72 30.72h120.74496v535.65952z"  /><path fill="currentColor" d="M309.64224 474.01472v190.95552h67.52256v-63.86688h43.648l19.13856-18.06336V493.15328l-19.13856-19.13856H309.64224z m81.7152 91.82208h-14.18752v-52.89984h14.18752v52.89984zM477.1584 473.79968l-24.29952 26.88v125.58336h60.42624v-110.96064h23.6544v110.96064h60.42624V500.67968l-24.29952-26.88zM610.26304 487.3472v132.03456h72.89856v27.31008h-72.89856v24.29952l10.112 13.76256h121.92256l9.68192-13.76256V473.79968h-128.37888l-13.3376 13.54752z m45.1584 25.58976h27.74016v73.10848h-27.74016v-73.10848z"  /></svg>