<svg xmlns="http://www.w3.org/2000/svg" viewBox="0 0 1024 1024">
<path fill="currentColor" d="M874.667 576A85.333 85.333 0 0 1 960 661.333v118.848A115.819 115.819 0 0 1 844.181 896H832v42.667A21.333 21.333 0 0 1 810.667 960h-21.334A21.333 21.333 0 0 1 768 938.667V896H256v42.667A21.333 21.333 0 0 1 234.667 960h-21.334A21.333 21.333 0 0 1 192 938.667V896h-12.181A115.819 115.819 0 0 1 64 780.181V661.333A85.333 85.333 0 0 1 149.333 576h725.334z m0 64H149.333a21.333 21.333 0 0 0-21.184 18.837l-0.149 2.496v118.848a51.819 51.819 0 0 0 48.405 51.712l3.414 0.107H844.16a51.819 51.819 0 0 0 51.712-48.405l0.107-3.414V661.333a21.333 21.333 0 0 0-18.838-21.184l-2.474-0.149z m-640 42.667a42.667 42.667 0 1 1 0 85.333 42.667 42.667 0 0 1 0-85.333z m554.666 0a42.667 42.667 0 1 1 0 85.333 42.667 42.667 0 0 1 0-85.333zM405.333 64a85.333 85.333 0 0 1 85.334 85.333v256a85.333 85.333 0 0 1-85.334 85.334h-256A85.333 85.333 0 0 1 64 405.333v-256A85.333 85.333 0 0 1 149.333 64h256zM640 64a21.333 21.333 0 0 1 21.333 21.333v384A21.333 21.333 0 0 1 640 490.667h-21.333a21.333 21.333 0 0 1-21.334-21.334v-384A21.333 21.333 0 0 1 618.667 64H640z m298.667 362.667A21.333 21.333 0 0 1 960 448v21.333a21.333 21.333 0 0 1-21.333 21.334h-21.334A21.333 21.333 0 0 1 896 469.333V448a21.333 21.333 0 0 1 21.333-21.333h21.334z m-149.334-192A21.333 21.333 0 0 1 810.667 256v213.333a21.333 21.333 0 0 1-21.334 21.334H768a21.333 21.333 0 0 1-21.333-21.334V256A21.333 21.333 0 0 1 768 234.667h21.333zM405.333 128h-256a21.333 21.333 0 0 0-21.184 18.837l-0.149 2.496v256a21.333 21.333 0 0 0 18.837 21.184l2.496 0.15h256a21.333 21.333 0 0 0 21.184-18.838l0.15-2.496v-256a21.333 21.333 0 0 0-18.838-21.184l-2.496-0.149zM298.667 234.667A21.333 21.333 0 0 1 320 256v42.667A21.333 21.333 0 0 1 298.667 320H256a21.333 21.333 0 0 1-21.333-21.333V256A21.333 21.333 0 0 1 256 234.667h42.667zM938.667 64A21.333 21.333 0 0 1 960 85.333v213.334A21.333 21.333 0 0 1 938.667 320h-21.334A21.333 21.333 0 0 1 896 298.667V85.333A21.333 21.333 0 0 1 917.333 64h21.334z m-149.334 0a21.333 21.333 0 0 1 21.334 21.333v21.334A21.333 21.333 0 0 1 789.333 128H768a21.333 21.333 0 0 1-21.333-21.333V85.333A21.333 21.333 0 0 1 768 64h21.333z"  /></svg>