<svg xmlns="http://www.w3.org/2000/svg" viewBox="0 0 1024 1024">
<path fill="currentColor" d="M871.57248 851.6352l-68.5312-255.0016a30.72 30.72 0 0 0-37.70368-21.67808l-96.16384 26.05568c74.73152-51.06688 123.88864-136.91904 123.88864-234.0608 0-156.23168-127.09888-283.33056-283.32544-283.33056S226.41664 210.72384 226.41664 366.95552c0 92.64128 44.6976 175.03232 113.65888 226.75968l-69.2224-18.75456a30.70464 30.70464 0 0 0-37.70368 21.6832l-68.52608 255.0016a30.72 30.72 0 0 0 40.65792 36.65408l126.76608-48.59392 84.89472 105.94816a30.72512 30.72512 0 0 0 53.63712-11.23328l47.5136-176.7936 47.50848 176.78848a30.6944 30.6944 0 0 0 29.66016 22.74816c9.21088 0 18.0736-4.15232 23.97696-11.50976l84.89472-105.94816 126.7712 48.59392a30.72512 30.72512 0 0 0 40.66816-36.66432zM287.85664 366.95552c0-122.34752 99.5328-221.89056 221.88544-221.89056s221.88544 99.53792 221.88544 221.89056-99.5328 221.88544-221.88544 221.88544-221.88544-99.53792-221.88544-221.88544z m139.13088 492.96384L365.9776 783.77472a30.73024 30.73024 0 0 0-34.97472-9.47712l-91.39712 35.03616 44.88704-167.02464 187.33056 50.7648-44.83584 166.84544z m278.20032-85.62176a30.72 30.72 0 0 0-34.9696 9.47712l-61.00992 76.14464-44.83584-166.84544 187.32544-50.7648 44.89216 167.02464-91.40224-35.03616z"  /><path fill="currentColor" d="M421.34016 404.85888L411.0592 464.7936a30.72 30.72 0 0 0 44.57472 32.37888l53.82144-28.29312 53.82144 28.29312a30.71488 30.71488 0 0 0 44.57472-32.38912l-10.28096-59.9296 43.54048-42.43968a30.72512 30.72512 0 0 0-17.02912-52.39808l-60.17024-8.74496-26.9056-54.52288a30.72512 30.72512 0 0 0-55.09632 0l-26.91584 54.52288-60.17024 8.74496a30.72 30.72 0 0 0-17.02912 52.39808l43.5456 42.4448z m58.4704-45.10208a30.70464 30.70464 0 0 0 23.13216-16.80384l6.51264-13.18912 6.50752 13.18912a30.71488 30.71488 0 0 0 23.13728 16.80384l14.55616 2.11456-10.53696 10.2656a30.7456 30.7456 0 0 0-8.83712 27.19744l2.48832 14.49984-13.02016-6.84544a30.68928 30.68928 0 0 0-28.59008 0l-13.02528 6.84544 2.48832-14.50496a30.74048 30.74048 0 0 0-8.83712-27.19232l-10.53696-10.2656 14.56128-2.11456z"  /></svg>