<svg xmlns="http://www.w3.org/2000/svg" viewBox="0 0 1024 1024">
<path fill="currentColor" d="M755.2 660.45952c-54.85056 0-102.70208 30.47936-127.55456 75.38176L392.23808 545.792l242.14016-198.4256c26.55744 27.89376 64 45.32736 105.46176 45.32736 80.3328 0 145.69472-65.36192 145.69472-145.69472S820.1728 101.30944 739.84 101.30944s-145.69472 65.36192-145.69472 145.69472c0 16.5888 2.82624 32.52224 7.95648 47.3856L358.68672 493.85984C338.33984 437.89312 284.6208 397.81376 221.71136 397.81376c-80.3328 0-145.69472 65.36192-145.69472 145.69472s65.36192 145.69472 145.69472 145.69472c61.60384 0 114.36544-38.45632 135.63392-92.60544l252.30336 203.68896a148.8384 148.8384 0 0 0-0.14848 5.87264c0 80.3328 65.36192 145.69472 145.69472 145.69472s145.69472-65.36192 145.69472-145.69472-65.3568-145.69984-145.6896-145.69984z m-15.36-497.71008c46.45888 0 84.25472 37.79584 84.25472 84.25472s-37.79584 84.25472-84.25472 84.25472-84.25472-37.79584-84.25472-84.25472 37.79584-84.25472 84.25472-84.25472zM221.71648 627.75808c-46.45888 0-84.25472-37.79584-84.25472-84.25472s37.79584-84.25472 84.25472-84.25472 84.25472 37.79584 84.25472 84.25472-37.79584 84.25472-84.25472 84.25472zM755.2 890.40896c-46.45888 0-84.25472-37.79584-84.25472-84.25472s37.79584-84.25472 84.25472-84.25472 84.25472 37.79584 84.25472 84.25472-37.79584 84.25472-84.25472 84.25472z"  /></svg>