<svg xmlns="http://www.w3.org/2000/svg" viewBox="0 0 1024 1024">
<path fill="currentColor" d="M874.667 64A85.333 85.333 0 0 1 960 149.333v192a85.333 85.333 0 0 1-85.333 85.334h-64v448A85.333 85.333 0 0 1 725.333 960H298.667a85.333 85.333 0 0 1-85.334-85.333v-448h-64A85.333 85.333 0 0 1 64 341.333v-192A85.333 85.333 0 0 1 149.333 64h725.334z m-128 234.667H277.333v576a21.333 21.333 0 0 0 18.838 21.184l2.496 0.149h426.666a21.333 21.333 0 0 0 21.184-18.837l0.15-2.496v-576z m-153.216 108.8l33.194 33.194a8.533 8.533 0 0 1 0 12.075L567.36 512h74.773c4.694 0 8.534 3.84 8.534 8.533v46.934a8.533 8.533 0 0 1-8.534 8.533H544v42.667h98.133c4.694 0 8.534 3.84 8.534 8.533v46.933a8.533 8.533 0 0 1-8.534 8.534H544V780.8a8.533 8.533 0 0 1-8.533 8.533h-46.934A8.533 8.533 0 0 1 480 780.8v-98.133h-98.133a8.533 8.533 0 0 1-8.534-8.534V627.2c0-4.693 3.84-8.533 8.534-8.533H480V576h-98.133a8.533 8.533 0 0 1-8.534-8.533v-46.934c0-4.693 3.84-8.533 8.534-8.533h74.752l-59.264-59.264a8.533 8.533 0 0 1 0-12.075l33.194-33.173a8.533 8.533 0 0 1 12.054 0L512 476.864l69.419-69.376a8.533 8.533 0 0 1 12.053 0zM874.667 128H149.333a21.333 21.333 0 0 0-21.184 18.837l-0.149 2.496v192a21.333 21.333 0 0 0 18.837 21.184l2.496 0.15h64V256a21.333 21.333 0 0 1 21.334-21.333h554.666A21.333 21.333 0 0 1 810.667 256v106.667h64a21.333 21.333 0 0 0 21.184-18.838l0.149-2.496v-192a21.333 21.333 0 0 0-18.837-21.184l-2.496-0.149z"  /></svg>