<svg xmlns="http://www.w3.org/2000/svg" viewBox="0 0 1024 1024">
<path fill="currentColor" d="M384 554.667A85.333 85.333 0 0 1 469.333 640v234.667A85.333 85.333 0 0 1 384 960H149.333A85.333 85.333 0 0 1 64 874.667V640a85.333 85.333 0 0 1 85.333-85.333H384zM610.133 832c4.694 0 8.534 3.84 8.534 8.533V896h183.466c4.694 0 8.534 3.84 8.534 8.533v46.934a8.533 8.533 0 0 1-8.534 8.533H563.2a8.533 8.533 0 0 1-8.533-8.533V840.533c0-4.693 3.84-8.533 8.533-8.533h46.933z m341.334 0c4.693 0 8.533 3.84 8.533 8.533v110.934a8.533 8.533 0 0 1-8.533 8.533h-46.934a8.533 8.533 0 0 1-8.533-8.533V840.533c0-4.693 3.84-8.533 8.533-8.533h46.934zM384 618.667H149.333a21.333 21.333 0 0 0-21.184 18.837L128 640v234.667a21.333 21.333 0 0 0 18.837 21.184l2.496 0.149H384a21.333 21.333 0 0 0 21.184-18.837l0.15-2.496V640a21.333 21.333 0 0 0-18.838-21.184l-2.496-0.15zM802.133 768c4.694 0 8.534 3.84 8.534 8.533v46.934a8.533 8.533 0 0 1-8.534 8.533H755.2a8.533 8.533 0 0 1-8.533-8.533v-46.934c0-4.693 3.84-8.533 8.533-8.533h46.933z m-503.466-64A21.333 21.333 0 0 1 320 725.333v64a21.333 21.333 0 0 1-21.333 21.334h-64a21.333 21.333 0 0 1-21.334-21.334v-64A21.333 21.333 0 0 1 234.667 704h64z m503.466-149.333c4.694 0 8.534 3.84 8.534 8.533v46.933a8.533 8.533 0 0 1-8.534 8.534H618.667v64h119.466c4.694 0 8.534 3.84 8.534 8.533v46.933a8.533 8.533 0 0 1-8.534 8.534H563.2a8.533 8.533 0 0 1-8.533-8.534V563.2c0-4.693 3.84-8.533 8.533-8.533h238.933z m149.334 128c4.693 0 8.533 3.84 8.533 8.533v46.933a8.533 8.533 0 0 1-8.533 8.534H819.2a8.533 8.533 0 0 1-8.533-8.534V691.2c0-4.693 3.84-8.533 8.533-8.533h132.267z m0-128c4.693 0 8.533 3.84 8.533 8.533v46.933a8.533 8.533 0 0 1-8.533 8.534h-46.934a8.533 8.533 0 0 1-8.533-8.534V563.2c0-4.693 3.84-8.533 8.533-8.533h46.934zM384 64a85.333 85.333 0 0 1 85.333 85.333V384A85.333 85.333 0 0 1 384 469.333H149.333A85.333 85.333 0 0 1 64 384V149.333A85.333 85.333 0 0 1 149.333 64H384z m490.667 0A85.333 85.333 0 0 1 960 149.333V384a85.333 85.333 0 0 1-85.333 85.333H640A85.333 85.333 0 0 1 554.667 384V149.333A85.333 85.333 0 0 1 640 64h234.667zM384 128H149.333a21.333 21.333 0 0 0-21.184 18.837l-0.149 2.496V384a21.333 21.333 0 0 0 18.837 21.184l2.496 0.15H384a21.333 21.333 0 0 0 21.184-18.838l0.15-2.496V149.333a21.333 21.333 0 0 0-18.838-21.184L384 128z m490.667 0H640a21.333 21.333 0 0 0-21.184 18.837l-0.15 2.496V384a21.333 21.333 0 0 0 18.838 21.184l2.496 0.15h234.667a21.333 21.333 0 0 0 21.184-18.838L896 384V149.333a21.333 21.333 0 0 0-18.837-21.184l-2.496-0.149z m-576 85.333A21.333 21.333 0 0 1 320 234.667v64A21.333 21.333 0 0 1 298.667 320h-64a21.333 21.333 0 0 1-21.334-21.333v-64a21.333 21.333 0 0 1 21.334-21.334h64z m490.666 0a21.333 21.333 0 0 1 21.334 21.334v64A21.333 21.333 0 0 1 789.333 320h-64A21.333 21.333 0 0 1 704 298.667v-64a21.333 21.333 0 0 1 21.333-21.334h64z"  /></svg>