<svg xmlns="http://www.w3.org/2000/svg" viewBox="0 0 1024 1024">
<path fill="currentColor" d="M810.667 64a128 128 0 0 1 128 128v640a128 128 0 0 1-128 128H256a128 128 0 0 1-128-128v-21.333H72.533A8.533 8.533 0 0 1 64 802.133V755.2c0-4.693 3.84-8.533 8.533-8.533H128v-192H72.533A8.533 8.533 0 0 1 64 546.133V499.2c0-4.693 3.84-8.533 8.533-8.533H128v-192H72.533A8.533 8.533 0 0 1 64 290.133V243.2c0-4.693 3.84-8.533 8.533-8.533H128V192A128 128 0 0 1 256 64h554.667z m0 64H256a64 64 0 0 0-63.893 60.245L192 192v640a64 64 0 0 0 60.245 63.893L256 896h554.667a64 64 0 0 0 63.893-60.245l0.107-3.755V192a64 64 0 0 0-60.246-63.893l-3.754-0.107zM423.019 277.333c23.552 0 44.586 10.027 60.65 26.304l0.768 0.64 6.08 5.91 16.363 16.49 26.795 26.71c16.341 16.277 26.752 36.821 26.752 61.013 0 24.17-10.411 44.715-26.752 60.97l-5.952 5.974 4.544 5.867c16.704 20.501 33.728 37.013 52.117 50.517l1.152 0.832 6.272-6.23c14.933-14.847 33.899-24.597 55.467-25.92l5.056-0.149c26.176 0 46.442 11.478 61.653 27.776l49.003 48.64c34.048 33.878 34.816 82.518 4.522 117.12l-3.242 3.52c-4.118 4.374-8.107 8.32-13.376 13.355l-5.014 4.864a175.168 175.168 0 0 0-5.44 5.547l-4.757 5.333C713.75 755.968 685.205 768 652.8 768h-2.005l-6.422-0.299c-33.152-2.112-61.952-11.584-96.106-27.776A472.47 472.47 0 0 1 390.74 617.131c-35.754-42.816-60.586-83.947-77.12-128.384-11.669-31.019-16.661-58.624-14.421-86.571a108.075 108.075 0 0 1 31.957-68.01l32.043-31.873c16.085-15.466 36.843-24.96 59.797-24.96z m0 64c-5.206 0-10.582 2.432-15.467 7.104l-31.232 31.104a44.117 44.117 0 0 0-13.355 28.416c-1.344 16.79 1.92 35.264 10.582 58.24 13.93 37.462 35.029 72.384 66.346 109.931a408.256 408.256 0 0 0 136.15 106.133c19.242 9.11 44.864 19.819 72.405 21.568l4.373 0.171c14.87 0 26.368-4.843 36.054-15.21 5.546-6.614 11.648-12.46 17.536-18.134l5.76-5.547 5.418-5.568c10.24-10.624 10.326-21.482 0.256-31.509l-52.181-51.84c-3.264-3.03-7.872-5.93-13.333-5.93-5.227 0-10.518 2.602-15.382 7.445l-31.424 31.253c-1.408 1.43-5.781 5.696-12.501 5.696a17.621 17.621 0 0 1-8.15-2.09l-3.797-2.22a149.077 149.077 0 0 0-6.378-3.306l-3.67-1.856a81.472 81.472 0 0 1-7.402-4.16c-29.227-18.475-55.787-42.453-80.982-73.387-14.016-17.557-23.018-32.256-29.482-47.722l-0.726-2.219c-1.344-4.8-1.6-10.752 4.694-17.003l8.256-7.637c5.141-4.907 10.133-9.941 15.338-15.19l7.808-7.85c5.206-5.184 7.894-10.453 7.894-15.637s-2.688-10.454-7.894-15.616l-25.024-24.918-8.746-8.853-11.094-11.115-5.546-5.269c-4.779-4.843-9.984-7.275-15.104-7.275z"  /></svg>