<svg xmlns="http://www.w3.org/2000/svg" viewBox="0 0 1024 1024">
<path fill="currentColor" d="M512.13824 93.69088c-241.18272 0-437.4016 196.21888-437.4016 437.4016 0 241.18272 196.21888 437.4016 437.4016 437.4016 241.18784 0 437.40672-196.21888 437.40672-437.4016 0-241.18272-196.21888-437.4016-437.40672-437.4016z m0 812.51328c-206.83264 0-375.10144-168.27392-375.10144-375.10656s168.2688-375.10656 375.10144-375.10656 375.10656 168.27392 375.10656 375.10656-168.2688 375.10656-375.10656 375.10656z"  /><path fill="currentColor" d="M97.88928 286.08512L211.0208 172.9536a29.0304 29.0304 0 1 0-41.05216-41.05728L56.83712 245.02784a29.0304 29.0304 0 0 0 20.52608 49.5616 28.93824 28.93824 0 0 0 20.52608-8.50432zM966.47168 240.12288l-113.13152-113.13152a29.0304 29.0304 0 1 0-41.05216 41.05728l113.13152 113.13152c5.66784 5.66784 13.09696 8.50432 20.52608 8.50432s14.85824-2.83648 20.52608-8.50432a29.0304 29.0304 0 0 0 0-41.05728zM513.72544 475.05408V333.27616a29.0304 29.0304 0 0 0-58.0608 0v153.79968c0 7.70048 3.05664 15.08352 8.50432 20.52608l126.44352 126.44352c5.66784 5.66784 13.09696 8.50432 20.52608 8.50432s14.85824-2.83648 20.52608-8.50432a29.0304 29.0304 0 0 0 0-41.05728l-117.9392-117.93408z"  /></svg>