<svg xmlns="http://www.w3.org/2000/svg" viewBox="0 0 1024 1024">
<path fill="currentColor" d="M512 42.667C771.2 42.667 981.333 252.8 981.333 512S771.2 981.333 512 981.333 42.667 771.2 42.667 512 252.8 42.667 512 42.667z m0 64c-223.85 0-405.333 181.482-405.333 405.333S288.149 917.333 512 917.333 917.333 735.851 917.333 512 735.851 106.667 512 106.667z m10.667 522.666a42.667 42.667 0 1 1 0 85.334 42.667 42.667 0 0 1 0-85.334z m23.466-352c4.694 0 8.534 3.84 8.534 8.534v281.6a8.533 8.533 0 0 1-8.534 8.533H499.2a8.533 8.533 0 0 1-8.533-8.533v-281.6c0-4.694 3.84-8.534 8.533-8.534h46.933z"  /></svg>