<svg xmlns="http://www.w3.org/2000/svg" viewBox="0 0 1024 1024">
<path fill="currentColor" d="M613.89312 460.928c-79.28832 0-143.53408 52.3776-143.53408 116.992 0 64.6144 64.24576 116.992 143.53408 116.992a170.24 170.24 0 0 0 58.68032-10.30656l52.95616 25.89696-12.33408-48.256c27.21792-21.25312 44.22656-51.1488 44.22656-84.33152 0-64.60928-64.24064-116.98688-143.52896-116.98688z m-47.82592 101.4016c-13.22496 0-23.93088-10.48576-23.93088-23.40352 0-12.91264 10.70592-23.40352 23.93088-23.40352s23.92576 10.48576 23.92576 23.40352c0 12.91776-10.73152 23.40352-23.92576 23.40352z m95.68256 0c-13.22496 0-23.93088-10.48576-23.93088-23.40352 0-12.91264 10.70592-23.40352 23.93088-23.40352s23.93088 10.48576 23.93088 23.40352c-0.00512 12.91776-10.74176 23.40352-23.93088 23.40352z"  /><path fill="currentColor" d="M613.89312 440.87808c6.76352 0 13.40928 0.4608 19.95776 1.10592-5.69344-78.91456-85.74464-141.50144-183.97696-141.50144-101.91872 0-184.5248 67.34848-184.5248 150.4256 0 42.65472 21.8624 81.07008 56.86272 108.4416l-15.86688 62.0288 68.08576-33.3056a219.83232 219.83232 0 0 0 75.4432 13.25568c0.86528 0 1.69472-0.09216 2.55488-0.09216-1.56672-7.59808-2.55488-15.34976-2.55488-23.31136 0-75.56608 73.6-137.04704 164.0192-137.04704zM511.3856 370.6624c16.97792 0 30.75584 13.47072 30.75584 30.08s-13.77792 30.07488-30.75584 30.07488c-16.9728 0-30.75072-13.47072-30.75072-30.07488s13.77792-30.08 30.75072-30.08zM388.36736 430.85312c-16.97792 0-30.75584-13.47584-30.75584-30.08 0-16.60928 13.77792-30.07488 30.75584-30.07488s30.75584 13.47072 30.75584 30.07488c0 16.60928-13.77792 30.08-30.75584 30.08z"  /><path fill="currentColor" d="M511.3856 33.8432c-260.0704 0-471.6544 211.584-471.6544 471.64928 0 260.07552 211.584 471.6544 471.64928 471.6544 260.07552 0 471.6544-211.584 471.6544-471.6544C983.04 245.4272 771.456 33.8432 511.3856 33.8432z m0 873.92768c-221.81376 0-402.26816-180.45952-402.26816-402.27328S289.57184 103.22432 511.3856 103.22432s402.27328 180.4544 402.27328 402.26816-180.45952 402.2784-402.27328 402.2784z"  /></svg>