<svg xmlns="http://www.w3.org/2000/svg" viewBox="0 0 1024 1024">
<path fill="currentColor" d="M789.333 64a170.667 170.667 0 0 1 170.582 165.333l0.085 5.334v311.466a8.533 8.533 0 0 1-8.533 8.534h-46.934a8.533 8.533 0 0 1-8.533-8.534V234.667l-0.107-4.63a106.667 106.667 0 0 0-101.802-101.93l-4.758-0.107H234.667l-4.63 0.107a106.667 106.667 0 0 0-101.93 101.802l-0.107 4.758v554.666l0.107 4.63a106.667 106.667 0 0 0 101.802 101.93l4.758 0.107h311.466c4.694 0 8.534 3.84 8.534 8.533v46.934a8.533 8.533 0 0 1-8.534 8.533H234.667A170.667 170.667 0 0 1 64.085 794.667L64 789.333V234.667A170.667 170.667 0 0 1 229.333 64.085l5.334-0.085h554.666z m85.334 554.667A85.333 85.333 0 0 1 960 704v170.667A85.333 85.333 0 0 1 874.667 960H704a85.333 85.333 0 0 1-85.333-85.333V704A85.333 85.333 0 0 1 704 618.667z m0 64H704l-2.496 0.149A21.333 21.333 0 0 0 682.667 704v170.667l0.149 2.496A21.333 21.333 0 0 0 704 896h170.667l2.496-0.15A21.333 21.333 0 0 0 896 874.668V704l-0.15-2.496a21.333 21.333 0 0 0-21.183-18.837zM240.149 194.9l229.184 229.163v-159.53c0-4.694 3.84-8.534 8.534-8.534H524.8c4.693 0 8.533 3.84 8.533 8.533v204.8a64 64 0 0 1-60.245 63.894l-3.755 0.106h-204.8A8.533 8.533 0 0 1 256 524.8v-46.933c0-4.694 3.84-8.534 8.533-8.534h159.531L194.901 240.15l45.248-45.248z"  /></svg>